# xmcd
#
# Track frame offsets: 
#        150
#        14881
#        31607
#        41116
#        58884
#        73262
#        90169
#        108283
#        117096
#        131462
#        150847
#        163824
#        175752
#        191807
#        206333
#
# Disc length: 2907 seconds
#
# Revision: 1
# Processed by: cddbd v1.5.1PL2 Copyright (c) Steve Scherf et al.
# Submitted via: ExactAudioCopy v0.95b3
#
DISCID=c40b590f
DTITLE=The Bills - Let Em Run
DYEAR=2004
DGENRE=Bluegrass
TTITLE0=Overture (Let Em Run)
TTITLE1=Old Blue Bridge
TTITLE2=Hello
TTITLE3=Which Way Away
TTITLE4=When the Bucket Runs Dry
TTITLE5=Let Em Run
TTITLE6=The Gatlinburg
TTITLE7=The Traveller
TTITLE8=Lay Down
TTITLE9=Stardust
TTITLE10=Nowhere To Be (And All Day to Get There)
TTITLE11=Bamfield's John Vanden
TTITLE12=Cambridge Set
TTITLE13=Oeil au Beurre Noir
TTITLE14=The Walk Home
EXTD=
EXTT0=
EXTT1=
EXTT2=
EXTT3=
EXTT4=
EXTT5=
EXTT6=
EXTT7=
EXTT8=
EXTT9=
EXTT10=
EXTT11=
EXTT12=
EXTT13=
EXTT14=
PLAYORDER=
